<mxfile host="app.diagrams.net" modified="2023-09-22T18:04:41.204Z" agent="Mozilla/5.0 (Windows NT 10.0; Win64; x64) AppleWebKit/537.36 (KHTML, like Gecko) Chrome/116.0.0.0 Safari/537.36 OPR/102.0.0.0" etag="d8F-fhsqNu8ShexnHLWn" version="21.7.5" type="google">
  <diagram name="Página-1" id="-vGyC4DIGq6Al4wwbThD">
    <mxGraphModel grid="1" page="1" gridSize="10" guides="1" tooltips="1" connect="1" arrows="1" fold="1" pageScale="1" pageWidth="827" pageHeight="1169" math="0" shadow="0">
      <root>
        <mxCell id="0" />
        <mxCell id="1" parent="0" />
        <mxCell id="UM93I_IY5GK162neWpa6-1" value="Paciente" style="swimlane;fontStyle=0;childLayout=stackLayout;horizontal=1;startSize=30;horizontalStack=0;resizeParent=1;resizeParentMax=0;resizeLast=0;collapsible=1;marginBottom=0;strokeColor=#212121;" vertex="1" parent="1">
          <mxGeometry x="610" y="328.5" width="189" height="330" as="geometry" />
        </mxCell>
        <mxCell id="UM93I_IY5GK162neWpa6-2" value="- idPac&#xa;- dtNascPac&#xa;- rgPac&#xa;- cpfPac&#xa;- nomePac&#xa;- endPac&#xa;- numPac&#xa;- complementoPac&#xa;- bairroPac&#xa;- estadoPac&#xa;- cidadePac&#xa;- cepPac&#xa;- telPac&#xa;- cartaoSusPac&#xa;- numConvenioPac&#xa;- tipoConvenioPac&#xa;- alergiasPac&#xa;- classifRiscoPac" style="text;strokeColor=#212121;fillColor=none;align=left;verticalAlign=middle;spacingLeft=4;spacingRight=4;overflow=hidden;points=[[0,0.5],[1,0.5]];portConstraint=eastwest;rotatable=0;" vertex="1" parent="UM93I_IY5GK162neWpa6-1">
          <mxGeometry y="30" width="189" height="270" as="geometry" />
        </mxCell>
        <mxCell id="UM93I_IY5GK162neWpa6-3" value="- calcIdade( )" style="text;strokeColor=#212121;fillColor=none;align=left;verticalAlign=middle;spacingLeft=4;spacingRight=4;overflow=hidden;points=[[0,0.5],[1,0.5]];portConstraint=eastwest;rotatable=0;" vertex="1" parent="UM93I_IY5GK162neWpa6-1">
          <mxGeometry y="300" width="189" height="30" as="geometry" />
        </mxCell>
        <mxCell id="UM93I_IY5GK162neWpa6-4" value="Hospital" style="swimlane;fontStyle=0;childLayout=stackLayout;horizontal=1;startSize=30;horizontalStack=0;resizeParent=1;resizeParentMax=0;resizeLast=0;collapsible=1;marginBottom=0;strokeColor=#212121;" vertex="1" parent="1">
          <mxGeometry x="610" y="30" width="189" height="245" as="geometry" />
        </mxCell>
        <mxCell id="UM93I_IY5GK162neWpa6-5" value="- idHosp&#xa;- nomeHosp&#xa;- endHosp&#xa;- numHosp&#xa;- complementoHosp&#xa;- bairroHosp&#xa;- estadoHosp&#xa;- cidadeHosp&#xa;- cepHosp&#xa;- telHosp&#xa;- cnpjHosp&#xa;- numAndaresHosp&#xa;- qntidadeSalasHosp" style="text;strokeColor=#212121;fillColor=none;align=left;verticalAlign=middle;spacingLeft=4;spacingRight=4;overflow=hidden;points=[[0,0.5],[1,0.5]];portConstraint=eastwest;rotatable=0;" vertex="1" parent="UM93I_IY5GK162neWpa6-4">
          <mxGeometry y="30" width="189" height="190" as="geometry" />
        </mxCell>
        <mxCell id="UM93I_IY5GK162neWpa6-6" value="" style="text;strokeColor=#212121;fillColor=none;align=left;verticalAlign=middle;spacingLeft=4;spacingRight=4;overflow=hidden;points=[[0,0.5],[1,0.5]];portConstraint=eastwest;rotatable=0;" vertex="1" parent="UM93I_IY5GK162neWpa6-4">
          <mxGeometry y="220" width="189" height="25" as="geometry" />
        </mxCell>
        <mxCell id="UM93I_IY5GK162neWpa6-7" value="Consultório" style="swimlane;fontStyle=0;childLayout=stackLayout;horizontal=1;startSize=30;horizontalStack=0;resizeParent=1;resizeParentMax=0;resizeLast=0;collapsible=1;marginBottom=0;strokeColor=#212121;" vertex="1" parent="1">
          <mxGeometry x="327" y="102.5" width="189" height="100" as="geometry" />
        </mxCell>
        <mxCell id="UM93I_IY5GK162neWpa6-8" value="- numConsult&#xa;- andarConsult" style="text;strokeColor=#212121;fillColor=none;align=left;verticalAlign=middle;spacingLeft=4;spacingRight=4;overflow=hidden;points=[[0,0.5],[1,0.5]];portConstraint=eastwest;rotatable=0;" vertex="1" parent="UM93I_IY5GK162neWpa6-7">
          <mxGeometry y="30" width="189" height="40" as="geometry" />
        </mxCell>
        <mxCell id="UM93I_IY5GK162neWpa6-9" value="+ isAtendendo()" style="text;strokeColor=#212121;fillColor=none;align=left;verticalAlign=middle;spacingLeft=4;spacingRight=4;overflow=hidden;points=[[0,0.5],[1,0.5]];portConstraint=eastwest;rotatable=0;" vertex="1" parent="UM93I_IY5GK162neWpa6-7">
          <mxGeometry y="70" width="189" height="30" as="geometry" />
        </mxCell>
        <mxCell id="UM93I_IY5GK162neWpa6-10" value="Médico" style="swimlane;fontStyle=0;childLayout=stackLayout;horizontal=1;startSize=30;horizontalStack=0;resizeParent=1;resizeParentMax=0;resizeLast=0;collapsible=1;marginBottom=0;strokeColor=#212121;" vertex="1" parent="1">
          <mxGeometry x="40" y="481" width="189" height="95" as="geometry" />
        </mxCell>
        <mxCell id="UM93I_IY5GK162neWpa6-11" value="- crmMed&#xa;- especialidade" style="text;strokeColor=#212121;fillColor=none;align=left;verticalAlign=middle;spacingLeft=4;spacingRight=4;overflow=hidden;points=[[0,0.5],[1,0.5]];portConstraint=eastwest;rotatable=0;" vertex="1" parent="UM93I_IY5GK162neWpa6-10">
          <mxGeometry y="30" width="189" height="40" as="geometry" />
        </mxCell>
        <mxCell id="UM93I_IY5GK162neWpa6-12" value="+ encaminhamento( )" style="text;strokeColor=#212121;fillColor=none;align=left;verticalAlign=middle;spacingLeft=4;spacingRight=4;overflow=hidden;points=[[0,0.5],[1,0.5]];portConstraint=eastwest;rotatable=0;" vertex="1" parent="UM93I_IY5GK162neWpa6-10">
          <mxGeometry y="70" width="189" height="25" as="geometry" />
        </mxCell>
        <mxCell id="UM93I_IY5GK162neWpa6-16" value="Atendimento" style="swimlane;fontStyle=0;childLayout=stackLayout;horizontal=1;startSize=30;horizontalStack=0;resizeParent=1;resizeParentMax=0;resizeLast=0;collapsible=1;marginBottom=0;strokeColor=#212121;" vertex="1" parent="1">
          <mxGeometry x="327" y="275" width="189" height="310" as="geometry" />
        </mxCell>
        <mxCell id="UM93I_IY5GK162neWpa6-17" value="- senhaAtend&#xa;- dtAtend&#xa;- entradaHospAtend&#xa;- saidaHospAtend&#xa;- inicioAtend&#xa;- fimAtend&#xa;- dtAlta" style="text;strokeColor=#212121;fillColor=none;align=left;verticalAlign=middle;spacingLeft=4;spacingRight=4;overflow=hidden;points=[[0,0.5],[1,0.5]];portConstraint=eastwest;rotatable=0;" vertex="1" parent="UM93I_IY5GK162neWpa6-16">
          <mxGeometry y="30" width="189" height="110" as="geometry" />
        </mxCell>
        <mxCell id="UM93I_IY5GK162neWpa6-18" value="+ tempParaAtend ( )&#xa;+ tempAtend ( )&#xa;+ isAltaAtend ( )&#xa;+ filaRecepcao ( )&#xa;+ filaTriagem ( )&#xa;+ filaAtendimento ( )&#xa;+ filaEspecialidade ( )&#xa;+ filaMedicacao ( )&#xa;+ filaExames ( ) &#xa;+ filaInternacao ( )&#xa;+ filaCirurgia ( )" style="text;strokeColor=#212121;fillColor=none;align=left;verticalAlign=middle;spacingLeft=4;spacingRight=4;overflow=hidden;points=[[0,0.5],[1,0.5]];portConstraint=eastwest;rotatable=0;" vertex="1" parent="UM93I_IY5GK162neWpa6-16">
          <mxGeometry y="140" width="189" height="170" as="geometry" />
        </mxCell>
        <mxCell id="UM93I_IY5GK162neWpa6-19" value="Funcionário" style="swimlane;fontStyle=0;childLayout=stackLayout;horizontal=1;startSize=30;horizontalStack=0;resizeParent=1;resizeParentMax=0;resizeLast=0;collapsible=1;marginBottom=0;strokeColor=#212121;" vertex="1" parent="1">
          <mxGeometry x="60" y="12.5" width="189" height="280" as="geometry" />
        </mxCell>
        <mxCell id="UM93I_IY5GK162neWpa6-20" value="- idFunc&#xa;- dtNascFunc&#xa;- rgFunc&#xa;- cpfFunc&#xa;- nomeFunc&#xa;- endFunc&#xa;- numFunc&#xa;- complementoFunc&#xa;- bairroFunc&#xa;- estadoFunc&#xa;- cidadeFunc&#xa;- cepFunc&#xa;- telFunc&#xa;- contratacaoFunc" style="text;strokeColor=#212121;fillColor=none;align=left;verticalAlign=middle;spacingLeft=4;spacingRight=4;overflow=hidden;points=[[0,0.5],[1,0.5]];portConstraint=eastwest;rotatable=0;" vertex="1" parent="UM93I_IY5GK162neWpa6-19">
          <mxGeometry y="30" width="189" height="210" as="geometry" />
        </mxCell>
        <mxCell id="UM93I_IY5GK162neWpa6-21" value="- anosServ( )&#xa;- calcIdade( )" style="text;strokeColor=#212121;fillColor=none;align=left;verticalAlign=middle;spacingLeft=4;spacingRight=4;overflow=hidden;points=[[0,0.5],[1,0.5]];portConstraint=eastwest;rotatable=0;" vertex="1" parent="UM93I_IY5GK162neWpa6-19">
          <mxGeometry y="240" width="189" height="40" as="geometry" />
        </mxCell>
        <mxCell id="B7WsVqAi27a_vkFSQ7xe-1" value="Enfermeiro" style="swimlane;fontStyle=0;childLayout=stackLayout;horizontal=1;startSize=30;horizontalStack=0;resizeParent=1;resizeParentMax=0;resizeLast=0;collapsible=1;marginBottom=0;strokeColor=#212121;" vertex="1" parent="1">
          <mxGeometry x="40" y="327" width="189" height="100" as="geometry" />
        </mxCell>
        <mxCell id="B7WsVqAi27a_vkFSQ7xe-2" value="- corenEnf&#xa;- isFormado" style="text;strokeColor=#212121;fillColor=none;align=left;verticalAlign=middle;spacingLeft=4;spacingRight=4;overflow=hidden;points=[[0,0.5],[1,0.5]];portConstraint=eastwest;rotatable=0;" vertex="1" parent="B7WsVqAi27a_vkFSQ7xe-1">
          <mxGeometry y="30" width="189" height="40" as="geometry" />
        </mxCell>
        <mxCell id="B7WsVqAi27a_vkFSQ7xe-3" value="+ classifPac ( )" style="text;strokeColor=#212121;fillColor=none;align=left;verticalAlign=middle;spacingLeft=4;spacingRight=4;overflow=hidden;points=[[0,0.5],[1,0.5]];portConstraint=eastwest;rotatable=0;" vertex="1" parent="B7WsVqAi27a_vkFSQ7xe-1">
          <mxGeometry y="70" width="189" height="30" as="geometry" />
        </mxCell>
        <mxCell id="Ifc_kg0DcdHclvmBp9QZ-1" value="Exame" style="swimlane;fontStyle=0;childLayout=stackLayout;horizontal=1;startSize=30;horizontalStack=0;resizeParent=1;resizeParentMax=0;resizeLast=0;collapsible=1;marginBottom=0;strokeColor=#212121;" vertex="1" parent="1">
          <mxGeometry x="40" y="636" width="189" height="105" as="geometry" />
        </mxCell>
        <mxCell id="Ifc_kg0DcdHclvmBp9QZ-2" value="- nomeExam&#xa;- dtExam&#xa;- valorExam" style="text;strokeColor=#212121;fillColor=none;align=left;verticalAlign=middle;spacingLeft=4;spacingRight=4;overflow=hidden;points=[[0,0.5],[1,0.5]];portConstraint=eastwest;rotatable=0;" vertex="1" parent="Ifc_kg0DcdHclvmBp9QZ-1">
          <mxGeometry y="30" width="189" height="50" as="geometry" />
        </mxCell>
        <mxCell id="Ifc_kg0DcdHclvmBp9QZ-3" value="+ calcValorExam ( )" style="text;strokeColor=#212121;fillColor=none;align=left;verticalAlign=middle;spacingLeft=4;spacingRight=4;overflow=hidden;points=[[0,0.5],[1,0.5]];portConstraint=eastwest;rotatable=0;" vertex="1" parent="Ifc_kg0DcdHclvmBp9QZ-1">
          <mxGeometry y="80" width="189" height="25" as="geometry" />
        </mxCell>
        <mxCell id="Ifc_kg0DcdHclvmBp9QZ-4" value="Medicação" style="swimlane;fontStyle=0;childLayout=stackLayout;horizontal=1;startSize=30;horizontalStack=0;resizeParent=1;resizeParentMax=0;resizeLast=0;collapsible=1;marginBottom=0;strokeColor=#212121;" vertex="1" parent="1">
          <mxGeometry x="310" y="601" width="189" height="140" as="geometry" />
        </mxCell>
        <mxCell id="Ifc_kg0DcdHclvmBp9QZ-5" value="- idMedic&#xa;- nomeMedic&#xa;- qntEstoqMedic&#xa;- dtSolicitacaoMedic&#xa;- qntdadeUtilizadaMedic" style="text;strokeColor=#212121;fillColor=none;align=left;verticalAlign=middle;spacingLeft=4;spacingRight=4;overflow=hidden;points=[[0,0.5],[1,0.5]];portConstraint=eastwest;rotatable=0;" vertex="1" parent="Ifc_kg0DcdHclvmBp9QZ-4">
          <mxGeometry y="30" width="189" height="80" as="geometry" />
        </mxCell>
        <mxCell id="Ifc_kg0DcdHclvmBp9QZ-6" value="+ medUsadaAtend ( )" style="text;strokeColor=#212121;fillColor=none;align=left;verticalAlign=middle;spacingLeft=4;spacingRight=4;overflow=hidden;points=[[0,0.5],[1,0.5]];portConstraint=eastwest;rotatable=0;" vertex="1" parent="Ifc_kg0DcdHclvmBp9QZ-4">
          <mxGeometry y="110" width="189" height="30" as="geometry" />
        </mxCell>
        <mxCell id="Ifc_kg0DcdHclvmBp9QZ-7" value="Internação" style="swimlane;fontStyle=0;childLayout=stackLayout;horizontal=1;startSize=30;horizontalStack=0;resizeParent=1;resizeParentMax=0;resizeLast=0;collapsible=1;marginBottom=0;strokeColor=#212121;" vertex="1" parent="1">
          <mxGeometry x="40" y="769" width="189" height="130" as="geometry" />
        </mxCell>
        <mxCell id="Ifc_kg0DcdHclvmBp9QZ-8" value="- qntdadeLeitosIntern&#xa;- dtInicioIntern&#xa;- dtFimIntern&#xa;- qntidadeInternados" style="text;strokeColor=#212121;fillColor=none;align=left;verticalAlign=middle;spacingLeft=4;spacingRight=4;overflow=hidden;points=[[0,0.5],[1,0.5]];portConstraint=eastwest;rotatable=0;" vertex="1" parent="Ifc_kg0DcdHclvmBp9QZ-7">
          <mxGeometry y="30" width="189" height="60" as="geometry" />
        </mxCell>
        <mxCell id="Ifc_kg0DcdHclvmBp9QZ-9" value="+ calcDiasIntern ( )&#xa;+ leitosDisponiveis ( )" style="text;strokeColor=#212121;fillColor=none;align=left;verticalAlign=middle;spacingLeft=4;spacingRight=4;overflow=hidden;points=[[0,0.5],[1,0.5]];portConstraint=eastwest;rotatable=0;" vertex="1" parent="Ifc_kg0DcdHclvmBp9QZ-7">
          <mxGeometry y="90" width="189" height="40" as="geometry" />
        </mxCell>
        <mxCell id="Q9rwFavWowbb8uv98r2F-1" value="" style="endArrow=block;html=1;rounded=0;edgeStyle=orthogonalEdgeStyle;endFill=0;startSize=6;endSize=10;" edge="1" parent="1" source="B7WsVqAi27a_vkFSQ7xe-1" target="UM93I_IY5GK162neWpa6-19">
          <mxGeometry width="50" height="50" relative="1" as="geometry">
            <mxPoint x="470" y="400" as="sourcePoint" />
            <mxPoint x="520" y="350" as="targetPoint" />
            <Array as="points">
              <mxPoint x="20" y="377" />
              <mxPoint x="20" y="152" />
            </Array>
          </mxGeometry>
        </mxCell>
        <mxCell id="Q9rwFavWowbb8uv98r2F-2" value="" style="endArrow=block;html=1;rounded=0;edgeStyle=orthogonalEdgeStyle;startArrow=none;startFill=0;endFill=0;endSize=10;" edge="1" parent="1" source="UM93I_IY5GK162neWpa6-10" target="UM93I_IY5GK162neWpa6-19">
          <mxGeometry width="50" height="50" relative="1" as="geometry">
            <mxPoint x="315" y="450" as="sourcePoint" />
            <mxPoint x="165" y="370" as="targetPoint" />
            <Array as="points">
              <mxPoint x="20" y="530" />
              <mxPoint x="20" y="152" />
            </Array>
          </mxGeometry>
        </mxCell>
        <mxCell id="Q9rwFavWowbb8uv98r2F-12" value="" style="endArrow=none;html=1;rounded=0;edgeStyle=orthogonalEdgeStyle;" edge="1" parent="1" source="UM93I_IY5GK162neWpa6-19" target="UM93I_IY5GK162neWpa6-16">
          <mxGeometry width="50" height="50" relative="1" as="geometry">
            <mxPoint x="360" y="320" as="sourcePoint" />
            <mxPoint x="410" y="270" as="targetPoint" />
          </mxGeometry>
        </mxCell>
        <mxCell id="Q9rwFavWowbb8uv98r2F-13" value="" style="endArrow=none;html=1;rounded=0;" edge="1" parent="1" source="UM93I_IY5GK162neWpa6-7" target="UM93I_IY5GK162neWpa6-4">
          <mxGeometry width="50" height="50" relative="1" as="geometry">
            <mxPoint x="360" y="320" as="sourcePoint" />
            <mxPoint x="410" y="270" as="targetPoint" />
          </mxGeometry>
        </mxCell>
        <mxCell id="Q9rwFavWowbb8uv98r2F-14" value="" style="endArrow=none;html=1;rounded=0;edgeStyle=orthogonalEdgeStyle;" edge="1" parent="1" source="Ifc_kg0DcdHclvmBp9QZ-1" target="UM93I_IY5GK162neWpa6-16">
          <mxGeometry width="50" height="50" relative="1" as="geometry">
            <mxPoint x="360" y="450" as="sourcePoint" />
            <mxPoint x="410" y="400" as="targetPoint" />
            <Array as="points">
              <mxPoint x="260" y="672" />
              <mxPoint x="260" y="530" />
              <mxPoint x="421" y="530" />
            </Array>
          </mxGeometry>
        </mxCell>
        <mxCell id="Q9rwFavWowbb8uv98r2F-15" value="" style="endArrow=none;html=1;rounded=0;edgeStyle=orthogonalEdgeStyle;" edge="1" parent="1" source="Ifc_kg0DcdHclvmBp9QZ-4" target="UM93I_IY5GK162neWpa6-16">
          <mxGeometry width="50" height="50" relative="1" as="geometry">
            <mxPoint x="232" y="650" as="sourcePoint" />
            <mxPoint x="411" y="398" as="targetPoint" />
            <Array as="points">
              <mxPoint x="260" y="672" />
              <mxPoint x="260" y="530" />
            </Array>
          </mxGeometry>
        </mxCell>
        <mxCell id="Q9rwFavWowbb8uv98r2F-16" value="" style="endArrow=none;html=1;rounded=0;edgeStyle=orthogonalEdgeStyle;" edge="1" parent="1" target="UM93I_IY5GK162neWpa6-16">
          <mxGeometry width="50" height="50" relative="1" as="geometry">
            <mxPoint x="229" y="815" as="sourcePoint" />
            <mxPoint x="421" y="455" as="targetPoint" />
            <Array as="points">
              <mxPoint x="229" y="820" />
              <mxPoint x="260" y="820" />
              <mxPoint x="260" y="530" />
            </Array>
          </mxGeometry>
        </mxCell>
        <mxCell id="Q9rwFavWowbb8uv98r2F-17" value="" style="endArrow=none;html=1;rounded=0;" edge="1" parent="1" source="UM93I_IY5GK162neWpa6-16" target="UM93I_IY5GK162neWpa6-7">
          <mxGeometry width="50" height="50" relative="1" as="geometry">
            <mxPoint x="307" y="380" as="sourcePoint" />
            <mxPoint x="357" y="330" as="targetPoint" />
          </mxGeometry>
        </mxCell>
        <mxCell id="Q9rwFavWowbb8uv98r2F-18" value="" style="endArrow=none;html=1;rounded=0;entryX=0.002;entryY=0.095;entryDx=0;entryDy=0;entryPerimeter=0;" edge="1" parent="1" source="UM93I_IY5GK162neWpa6-17" target="UM93I_IY5GK162neWpa6-1">
          <mxGeometry width="50" height="50" relative="1" as="geometry">
            <mxPoint x="529.0000000000002" y="328.625" as="sourcePoint" />
            <mxPoint x="610" y="360.875" as="targetPoint" />
          </mxGeometry>
        </mxCell>
        <mxCell id="Zv56oUvc5ZZ-OzQQcPgx-1" value="Prontuário" style="swimlane;fontStyle=0;childLayout=stackLayout;horizontal=1;startSize=30;horizontalStack=0;resizeParent=1;resizeParentMax=0;resizeLast=0;collapsible=1;marginBottom=0;strokeColor=#212121;" vertex="1" parent="1">
          <mxGeometry x="610" y="755" width="189" height="140" as="geometry" />
        </mxCell>
        <mxCell id="Zv56oUvc5ZZ-OzQQcPgx-2" value="- consultas&#xa;- Internação&#xa;- examesFeitos&#xa;- alergias&#xa;- medicControlada" style="text;strokeColor=#212121;fillColor=none;align=left;verticalAlign=middle;spacingLeft=4;spacingRight=4;overflow=hidden;points=[[0,0.5],[1,0.5]];portConstraint=eastwest;rotatable=0;" vertex="1" parent="Zv56oUvc5ZZ-OzQQcPgx-1">
          <mxGeometry y="30" width="189" height="90" as="geometry" />
        </mxCell>
        <mxCell id="Zv56oUvc5ZZ-OzQQcPgx-3" value="" style="text;strokeColor=#212121;fillColor=none;align=left;verticalAlign=middle;spacingLeft=4;spacingRight=4;overflow=hidden;points=[[0,0.5],[1,0.5]];portConstraint=eastwest;rotatable=0;" vertex="1" parent="Zv56oUvc5ZZ-OzQQcPgx-1">
          <mxGeometry y="120" width="189" height="20" as="geometry" />
        </mxCell>
        <mxCell id="Zv56oUvc5ZZ-OzQQcPgx-4" value="" style="endArrow=none;html=1;rounded=0;" edge="1" parent="1" source="Zv56oUvc5ZZ-OzQQcPgx-1" target="UM93I_IY5GK162neWpa6-1">
          <mxGeometry width="50" height="50" relative="1" as="geometry">
            <mxPoint x="240" y="790" as="sourcePoint" />
            <mxPoint x="290" y="740" as="targetPoint" />
          </mxGeometry>
        </mxCell>
        <mxCell id="Zv56oUvc5ZZ-OzQQcPgx-9" value="" style="endArrow=none;html=1;rounded=0;edgeStyle=orthogonalEdgeStyle;" edge="1" parent="1" source="Zv56oUvc5ZZ-OzQQcPgx-1" target="UM93I_IY5GK162neWpa6-16">
          <mxGeometry width="50" height="50" relative="1" as="geometry">
            <mxPoint x="640" y="600" as="sourcePoint" />
            <mxPoint x="690" y="550" as="targetPoint" />
            <Array as="points">
              <mxPoint x="560" y="780" />
              <mxPoint x="560" y="360" />
            </Array>
          </mxGeometry>
        </mxCell>
        <mxCell id="apYt-Lc-_TFAwIGzv8a8-1" value="*" style="text;html=1;align=center;verticalAlign=middle;resizable=0;points=[];autosize=1;strokeColor=none;fillColor=none;" vertex="1" parent="1">
          <mxGeometry x="510" y="130" width="30" height="30" as="geometry" />
        </mxCell>
        <mxCell id="apYt-Lc-_TFAwIGzv8a8-2" value="1" style="text;html=1;align=center;verticalAlign=middle;resizable=0;points=[];autosize=1;strokeColor=none;fillColor=none;" vertex="1" parent="1">
          <mxGeometry x="580" y="130" width="30" height="30" as="geometry" />
        </mxCell>
        <mxCell id="apYt-Lc-_TFAwIGzv8a8-3" value="1" style="text;html=1;align=center;verticalAlign=middle;resizable=0;points=[];autosize=1;strokeColor=none;fillColor=none;" vertex="1" parent="1">
          <mxGeometry x="420" y="251" width="30" height="30" as="geometry" />
        </mxCell>
        <mxCell id="apYt-Lc-_TFAwIGzv8a8-4" value="1" style="text;html=1;align=center;verticalAlign=middle;resizable=0;points=[];autosize=1;strokeColor=none;fillColor=none;" vertex="1" parent="1">
          <mxGeometry x="420" y="200" width="30" height="30" as="geometry" />
        </mxCell>
        <mxCell id="apYt-Lc-_TFAwIGzv8a8-5" value="1" style="text;html=1;align=center;verticalAlign=middle;resizable=0;points=[];autosize=1;strokeColor=none;fillColor=none;" vertex="1" parent="1">
          <mxGeometry x="249" y="125" width="30" height="30" as="geometry" />
        </mxCell>
        <mxCell id="apYt-Lc-_TFAwIGzv8a8-6" value="1" style="text;html=1;align=center;verticalAlign=middle;resizable=0;points=[];autosize=1;strokeColor=none;fillColor=none;" vertex="1" parent="1">
          <mxGeometry x="585" y="338" width="30" height="30" as="geometry" />
        </mxCell>
        <mxCell id="apYt-Lc-_TFAwIGzv8a8-7" value="*" style="text;html=1;align=center;verticalAlign=middle;resizable=0;points=[];autosize=1;strokeColor=none;fillColor=none;" vertex="1" parent="1">
          <mxGeometry x="510" y="337" width="30" height="30" as="geometry" />
        </mxCell>
        <mxCell id="apYt-Lc-_TFAwIGzv8a8-8" value="*" style="text;html=1;align=center;verticalAlign=middle;resizable=0;points=[];autosize=1;strokeColor=none;fillColor=none;" vertex="1" parent="1">
          <mxGeometry x="301" y="409" width="30" height="30" as="geometry" />
        </mxCell>
        <mxCell id="apYt-Lc-_TFAwIGzv8a8-9" value="1" style="text;html=1;align=center;verticalAlign=middle;resizable=0;points=[];autosize=1;strokeColor=none;fillColor=none;" vertex="1" parent="1">
          <mxGeometry x="580" y="755" width="30" height="30" as="geometry" />
        </mxCell>
        <mxCell id="apYt-Lc-_TFAwIGzv8a8-10" value="1" style="text;html=1;align=center;verticalAlign=middle;resizable=0;points=[];autosize=1;strokeColor=none;fillColor=none;" vertex="1" parent="1">
          <mxGeometry x="700" y="730" width="30" height="30" as="geometry" />
        </mxCell>
        <mxCell id="apYt-Lc-_TFAwIGzv8a8-11" value="1" style="text;html=1;align=center;verticalAlign=middle;resizable=0;points=[];autosize=1;strokeColor=none;fillColor=none;" vertex="1" parent="1">
          <mxGeometry x="700" y="654.5" width="30" height="30" as="geometry" />
        </mxCell>
        <mxCell id="apYt-Lc-_TFAwIGzv8a8-12" value="0..*" style="text;html=1;align=center;verticalAlign=middle;resizable=0;points=[];autosize=1;strokeColor=none;fillColor=none;" vertex="1" parent="1">
          <mxGeometry x="220" y="648" width="40" height="30" as="geometry" />
        </mxCell>
        <mxCell id="apYt-Lc-_TFAwIGzv8a8-13" value="0..*" style="text;html=1;align=center;verticalAlign=middle;resizable=0;points=[];autosize=1;strokeColor=none;fillColor=none;" vertex="1" parent="1">
          <mxGeometry x="278" y="649" width="40" height="30" as="geometry" />
        </mxCell>
        <mxCell id="apYt-Lc-_TFAwIGzv8a8-14" value="0..1" style="text;html=1;align=center;verticalAlign=middle;resizable=0;points=[];autosize=1;strokeColor=none;fillColor=none;" vertex="1" parent="1">
          <mxGeometry x="221" y="792" width="40" height="30" as="geometry" />
        </mxCell>
        <mxCell id="apYt-Lc-_TFAwIGzv8a8-16" value="1" style="text;html=1;align=center;verticalAlign=middle;resizable=0;points=[];autosize=1;strokeColor=none;fillColor=none;" vertex="1" parent="1">
          <mxGeometry x="297" y="500" width="30" height="30" as="geometry" />
        </mxCell>
      </root>
    </mxGraphModel>
  </diagram>
</mxfile>
